<svg id="Layer_1" data-name="Layer 1" xmlns="http://www.w3.org/2000/svg" viewBox="0 0 794.61 408.03"><path d="M784,239.25a15.74,15.74,0,0,1-.69-7.68c2.2-9.72,4.9-19.34,6.94-29.09.52-2.47.19-6.58-1.35-7.67-2.35-1.64-6.74-2.65-9.08-1.51-4.15,2-8.63,5.17-10.8,9.06-5.64,10.11-10.11,20.87-15,31.39-.68,1.48-1.13,3.06-1.7,4.6l-1.49-.52c.44-15.19,5.65-29.22,11.49-43-8.09-4.62-15.64-2.15-18.47,6.14-1.88,5.5-2.93,11.3-5,16.71a179.87,179.87,0,0,1-8.24,17.91c-.85,1.64-2.92,2.66-4.42,4l-1.44-.7c.18-3.38-.16-6.88.64-10.1,2.52-10.16,5.24-20.28,8.36-30.27,1.22-3.94-.19-5.11-3.56-5.69-5.94-1-10.86,1.22-14.09,6.79-1.56-1.2-2.82-2.25-4.18-3.19-9.12-6.31-16.32-4.94-21.44,4.83-2.83,5.39-4.2,11.53-6.65,17.14-2.64,6-5.63,11.93-8.77,17.71-.8,1.47-2.77,2.3-4.2,3.43l-1.3-.68c.22-3.74,0-7.58.76-11.2,1.82-8.27,4.46-16.37,6.13-24.66.55-2.74.12-7.31-1.6-8.47-2.4-1.62-6.71-1.71-9.67-.78s-5.57,3.59-7.62,6.08c-7.66,9.33-11.24,20.65-14.83,31.92-.75,2.36-1.51,4.71-2.27,7.07a8.74,8.74,0,0,1-1.07-6c1.15-5.36,2.51-10.68,3.93-16,1.34-5,3.1-9.85,4.23-14.88,1.52-6.81-2.53-10.81-9.31-9.16a15.13,15.13,0,0,0-6.87,3.74c-2.8,2.79-5.62,5.91-7.23,9.44-4.8,10.5-9,21.26-13.47,31.91.43-15,5.69-29,10.54-43.06-8.29-4.6-15.59-2.17-18.41,6.24-2,6-3.33,12.18-5.19,18.22-1.7,5.51-3.26,11.14-5.72,16.33-2.32,4.9-4.83,4.92-8,.39a93.38,93.38,0,0,1-7-12.06c-5-9.93-3.68-13.35,6.61-18.17,1.94-.91,4.18-1.17,6.12-2.07,1.53-.71,4.1-2.14,4-2.9-.38-2.53-1.26-6.45-2.9-7-3-1-7.13-.92-9.79.54a22.78,22.78,0,0,0-8.73,8.61c-5.25,9.77-9.73,20-14.46,30-.77,1.65-1.27,3.44-1.89,5.16l-1.58-.42c.65-4.87.78-9.89,2.05-14.6,5.44-20.05,11.24-40,16.81-60,.39-1.42.68-3.61-.07-4.46-3.1-3.48-15.06-.69-16.28,3.81-5.14,18.92-10.5,37.8-14.89,56.9A29.43,29.43,0,0,1,529,238c-2.56,1.72-7.33,2.92-9.53,1.65s-3.84-6.17-3.32-9a254.63,254.63,0,0,1,7-26.93c.62-2.08,2.84-3.68,4.32-5.49l2.08.75c-.62,4.72-1.25,9.45-1.88,14.24,7.2,3.06,10.93.76,11.13-7.08.14-5.45-2.35-9.23-7.15-11.57-8.89-4.33-19.05-1.65-23.56,7.43-3.43,6.9-5.32,14.6-7.55,22-1.94,6.48-4.85,12-12.15,16.13,0-3.3-.41-5.47.06-7.42,2.77-11.46,5.78-22.86,8.59-34.31.35-1.45.66-3.7-.11-4.49-3.59-3.64-14.95-.47-16.45,4.45-1.84,6-2.94,12.4-5.43,18.15-3,6.91-7,13.42-10.9,19.88-.82,1.37-3.24,1.77-4.92,2.62-.36-1.85-1.34-3.83-1-5.52,2.93-13.31,6-26.6,9.36-39.81.41-1.6,2.55-3,4.19-4a84.91,84.91,0,0,1,8-3.71c-.17-.44-.35-.87-.53-1.31l-9.67.77c2.52-8.08,4.88-15.34,7-22.67.38-1.34.46-3.59-.33-4.3-4.13-3.73-14.93-.34-16.53,5-1.43,4.78-2.91,9.55-4.17,14.37-1.14,4.39-2,8.85-8.41,6.18-1.12,4.6-1,8.07,4,9.43-1.49,5.65-2.87,10.87-4.18,15.85-5.4-1.37-10.22-2.55-15-3.87a4.14,4.14,0,0,1-2.29-1.62c-3.91-6.39-8.42-12.54-11.29-19.38-2-4.83-2.48-10.63-2.36-16,.12-4.93,4.51-7.72,9.12-7,4.92.78,6.19,4.44,5.45,8.53-.77,4.3-2.49,8.43-3.86,12.83,4.82,4.25,13.13,3.9,15.66-1,3.76-7.27,1.07-19.21-5.44-24.14-11.37-8.61-31.56-1.78-35.26,12-2.35,8.79.23,16.81,4.53,24.39,2.35,4.13,5,8.08,7.71,12.36-2,.87-3.51,1.48-5,2.17a34.24,34.24,0,0,0-17.2,16.7c-6.48,13.71,1.41,29.4,15.19,30.41,14.21,1,26-7.51,27.71-21.64,1-7.88-.47-16.06-.85-24.72l12.4,2.34c-.49,2.48-.94,4.38-1.23,6.3-1.12,7.55-3,15.1-3.06,22.67-.08,9.25,8.79,13.2,16.3,7.75a35.46,35.46,0,0,0,6.66-6.69c2.31-2.92,4.2-6.17,6.8-10.09,0,2.64,0,4.26,0,5.88,0,5.2.59,10.18,6.12,12.56,4.7,2,9.54.31,14-5,2.64-3.13,4.89-6.59,7.43-10,2.93,11.78,9.09,17.27,18.49,15.24,4.44-1,8.81-3.78,12.4-6.75s6.12-7.16,9.5-11.29c-.17,2.26-.42,3.9-.39,5.55a28.44,28.44,0,0,0,.53,5.45c1,4.75,4.25,7.36,9.28,7.37,4.63,0,8.86-.36,10.07-6.41.92-4.57,2.95-8.92,4.64-13.8,2.79,5.35,4.83,10.13,7.63,14.4,5,7.63,11.57,7.9,17.57,1,2-2.3,3.55-5,5.59-7.89.25,1.91.33,3.24.62,4.52,1.24,5.49,4.3,8,9.72,8.21,6.33.2,8.1-1.35,10.1-7.52,2.81-8.69,5.82-17.34,9-25.89,1.23-3.25,3.27-6.2,5-9.28-.72,6.52-2.66,12.55-3.58,18.73a68.59,68.59,0,0,0-.51,16.81c.5,4.85,4.56,7.22,9.91,7.16,4.67-.06,8.07-1.15,9.3-6.75A144.62,144.62,0,0,1,650.53,224c2-5.28,4.64-10.32,7-15.47l1.27.55c-.44,1.55-1,3.09-1.3,4.67-1.59,8.46-3.54,16.9-4.51,25.44-.52,4.53,1.18,9.14,6.17,11,4.77,1.73,9,.07,12-3.77,3.28-4.1,6.22-8.46,9.63-13.15a62.85,62.85,0,0,0,0,7.55c.54,4.12,2.06,7.85,6.39,9.37s8.23.22,11.29-3.15a45.11,45.11,0,0,0,4.57-5.92c1.72-2.69,3.17-5.56,5.42-9.55a63.22,63.22,0,0,0-.54,6.89c.2,4.8,1,9.59,6.12,11.62s9.39-.15,12.81-4.16a46.59,46.59,0,0,0,3.12-3.89c1.79-2.6,3.48-5.28,5.43-8.26.43,3.8.48,7,1.22,10,1.18,4.89,4.75,7,9.65,6.93,4.54-.07,8.16-.85,9.59-6.42a134.91,134.91,0,0,1,7-19.71c2.51-5.85,5.75-11.39,8.67-17.07l1.25.58c-.34,1.23-.76,2.43-1,3.68-1.79,9.27-3.85,18.5-5.18,27.84a9.39,9.39,0,0,0,6,10.5c4.52,1.79,8.44.17,11.7-3.31,8-8.53,12.16-19,15.73-29.86C795,224.44,792.45,233.74,784,239.25Zm-366.57,4c-1.47,3.32-4,5.79-8.16,5.35s-5.88-3.38-6.73-7c-2.18-9.32-.65-17.94,5.65-25.27,1.95-2.26,4.92-3.64,8.12-5.92C420.59,222,422.12,232.52,417.38,243.22Zm296.69-36c-3.85,9.19-7.42,18.49-11.28,27.67-.71,1.7-2.27,3-3.44,4.54l-2.07-.64c.43-4.16.43-8.42,1.38-12.45,1.84-7.72,4.07-15.37,6.47-23,.72-2.28,2.35-4.88,5.57-3.28C713.51,201.47,715.67,203.34,714.07,207.18Z" transform="translate(-5.58 -8.25)"/><path d="M327.84,228.39l-15.39,6.51c-.28-.77-.54-1.1-.49-1.37,2.48-11.71,5.05-23.4,7.41-35.14.29-1.42,0-3.95-.92-4.47-6-3.46-14.29.47-16.71,7.06-3.5,9.5-7.42,18.85-11.36,28.18-.84,2-2.54,3.62-3.84,5.41l-1.48-.43c0-2.68-.49-5.48.09-8,2.11-9.24,4.63-18.38,6.89-27.58.36-1.5.85-3.66.11-4.63-3.39-4.48-14.95-2.52-16.54,2.87A216.7,216.7,0,0,0,269.77,220,35.88,35.88,0,0,1,262,236.39c-1,1.26-2.62,2-4.82,3.68,0-4.47-.56-7.81.1-10.89,1.93-8.93,4.59-17.7,6.41-26.64.53-2.57.13-6.83-1.5-8-2.27-1.61-6.79-2.32-9.1-1.09-4.06,2.16-8.4,5.46-10.46,9.4-5,9.52-8.73,19.68-12.9,29.62-.85,2-1.37,4.16-2,6.25l-1.56-.31c.38-3.19.42-6.48,1.22-9.56,2.24-8.69,5.09-17.24,7-26,.6-2.7.09-7.31-1.64-8.46-2.39-1.6-7.21-2.09-9.56-.68-4.23,2.54-8.52,6.26-10.76,10.55-4.67,8.93-8,18.55-11.87,27.91-.77,1.88-1.31,3.84-2,5.76l-1.21-.39c1-15,6.15-29,11.08-42.95-9.31-4.48-15.85-2-18.82,7.39-2,6.17-3.38,12.51-5.16,18.74-2.12,7.44-5.89,13.81-12.64,18.52-.71-3.18-1.24-6.29-.62-9.16,2-9.26,4.67-18.37,6.54-27.65.52-2.57.11-6.84-1.52-8-2.3-1.58-6.67-2.17-9.16-1-3.71,1.72-7.8,4.71-9.55,8.24-5.45,10.95-9.87,22.42-14.68,33.69-.46,1.07-.86,2.16-1.28,3.24l-1.35-.33c.37-3.07.4-6.22,1.17-9.19,2.17-8.36,4.8-16.62,6.93-25,.92-3.61,2.31-7.8-1.9-10.43-4-2.5-8.37-1.71-11.65,1.13-3.46,3-7,6.48-8.94,10.51-4.53,9.59-8.09,19.63-12,29.49-.42,1-.89,2.09-1.34,3.13l-1.6-.49c1.6-7.25,3-14.56,4.89-21.73s4.42-14.14,6.65-21.18c-8.92-4.31-15.55-1.87-18.58,7.11-2,5.82-3.09,11.92-5.06,17.73a77.18,77.18,0,0,1-6.1,14c-1.35,2.35-4.22,3.81-6.41,5.67-.34-2.79-1.48-5.77-.88-8.35,2.53-10.83,5.6-21.54,8.4-32.32.35-1.33.56-4,.32-4-2.82-.73-5.81-1.73-8.6-1.38-3,.37-6.9,0-8.06,4.39-2.11,8-4.64,16-6.57,24.06-2.07,8.7-4.69,11.4-14.25,13,1.26-6.29,2.3-12.5,3.77-18.6,4.08-16.8,8.44-33.53,12.47-50.34,2.11-8.75-1.31-12.38-10.12-11.3C45.12,156.35,26,173.11,21.81,190.29a32.12,32.12,0,0,0-.9,10.37c.75,8.46,10.17,13.08,16.2,7.81-10.69-13.24-2.91-39.45,13.36-45,.48-.16,1-.34,1.43-.46,3.25-.76,4.25.39,3.53,3.69-5.28,24-10.38,48.1-15.8,72.1a11.37,11.37,0,0,1-4.3,5.89c-6.16,4.51-12.86,8.31-18.86,13A28.1,28.1,0,0,0,6,274.26C3.78,284.92,10.17,292.37,21,291.79c9.17-.5,16.29-5.18,20.09-12.91,5-10.21,9.68-20.93,12.21-32,2.09-9.13,8-12,15.3-15.21,0,3.45-.2,6.43,0,9.37.71,8.78,8.69,12.79,15.84,7.68,3.16-2.26,5.5-5.71,8-8.77,1.18-1.43,1.92-3.22,3.52-6,.32,4.07.28,6.71.77,9.24.93,4.71,4.34,7.31,9.27,7.47,6.09.2,8.19-1.37,9.94-6.46q5.19-15.09,10.83-30c.85-2.26,2.48-4.22,3.75-6.33.33,2-.4,3.56-.66,5.16-1.5,9.32-3.32,18.62-4.15,28-.47,5.34,3.45,9,8.28,9.54,6.66.75,9.67-1.19,11.47-7.07,2-6.51,3.91-13.07,6.33-19.43,2.13-5.59,4.92-10.93,7.42-16.38l1.32.57c-.86,2.65-2.1,5.24-2.51,8-1.3,8.66-3.21,17.37-3.15,26.05.06,7.94,8.83,11.25,15.11,6.28,2.68-2.13,4.82-5,6.94-7.78,1.8-2.33,3.22-5,4.95-7.69.33,4.06.16,7.62,1,10.92,1.23,4.82,4.88,6.87,9.83,6.66,4.36-.18,8-.81,9.16-6.26a106.53,106.53,0,0,1,5-16.18c2.57-6.74,5.62-13.29,8.46-19.92l1.47.57c-.43,1.69-1,3.36-1.26,5.08-1.38,9.16-3.15,18.3-3.84,27.52-.4,5.32,3.61,8.72,8.64,9.17,6.39.56,9.08-1.36,11-7.13,3-9,6.07-17.94,9.4-26.81,1.17-3.1,3.17-5.9,4.79-8.83a5.59,5.59,0,0,1-.05,3.68c-1.83,8.92-4,17.8-5.27,26.81-.66,4.68.8,9.6,5.88,11.65s9.51,0,12.79-4.14c3-3.75,5.65-7.73,8.61-11.81.42,1.73.75,3.34,1.21,4.91,1.93,6.62,9.13,9.2,14.68,5a26.87,26.87,0,0,0,5.7-6.23c2.58-3.72,4.79-7.69,7.16-11.55.06,4.19-.84,8.09-1.17,12-.29,3.42-2.08,5-4.83,6.8-7.11,4.55-14.55,9-20.55,14.78-4,3.92-7,9.84-8.42,15.38-2.54,10,4.47,17.14,14.8,16.56,9-.51,15.22-5.37,20-12.41,7.47-10.94,10.5-23.62,13.57-36.23a8.18,8.18,0,0,1,4.92-6.21c4.75-2.21,9.24-5,13.85-7.53Zm-300,47.27a18.43,18.43,0,0,1-6.09,7c-4.48,3.19-9.16.85-8.76-4.57a31.35,31.35,0,0,1,3.77-12.6c4.52-8,12.11-12.91,19.89-17.35l1.78,1C35,258,31.72,267,27.88,275.66ZM282.35,277a11.52,11.52,0,0,1-4.55,5.13c-2,1.1-4.94,1.89-6.84,1.17-1.49-.58-3.06-3.86-2.75-5.61a38,38,0,0,1,4.08-12.53c4.55-7.77,11.89-12.66,19.6-16.93l1.9,1.08C290,258.5,286.34,267.8,282.35,277Z" transform="translate(-5.58 -8.25)"/><path d="M371.69,181.67a169.6,169.6,0,0,0-11,14.12c-1,1.45,0,4.17,0,6.3,2.18-.2,4.8.27,6.46-.77,2.75-1.74,5-4.33,7.25-6.79q14-15.6,27.88-31.38c2.41-2.74,6.1-5.19,3.79-9.86s-6.39-4.08-10.4-4c-.66,0-1.33.1-2,.12-17.3.36-34.61.69-51.91,1.1-3.13.08-4.79-1.23-5.85-4.19-1.86-5.16-4-10.23-6.24-15.24-1.14-2.56-.47-4,1.48-6,5.42-5.56,11.34-11,15.37-17.49,11.3-18.3,12.46-37.93,4.92-58-1.23-3.29-.5-4.66,2.34-6.22,7.59-4.17,15-8.62,22.5-13,6.38-3.71,6.55-6.44.88-11.1-3.07-2.52-6-2.12-9.18-.23-8.29,4.89-16.67,9.65-25.22,14.58C324.46,12,303.24,6,282.68,8.93c-26.1,3.69-44.48,18.35-53,43.47-8.93,26.27-3,50,17,69,19.34,18.34,42.52,22.43,67.63,13.35,4.77-1.73,6.9-.33,8.36,3.69,2.71,7.49,5.85,14.89,7.76,22.59,3.39,13.65,6.9,27.38,8.67,41.29,2.1,16.48,2.53,33.17,3.4,49.79a10.14,10.14,0,0,1-2.26,6.77c-5.76,6.21-12.07,11.91-18,18-9.16,9.45-18.27,18.94-27.17,28.63-3.69,4-3.14,6.12,1.44,9.19a31.57,31.57,0,0,0,4.34,2.48c8.89,4.13,17.79,8.26,26.72,12.31,11.06,5,11.08,5,9.39,16.76-.14,1-.22,2-.29,3-.95,14.28-1.84,28.56-2.89,42.83a15.05,15.05,0,0,1-1.7,6.67,10.77,10.77,0,0,1-5,3.64c-3.83,1.54-8,2.35-11.71,4-3,1.34-5.8,4.09-3.85,7.43,1,1.66,4.83,2.72,7.08,2.33,5.87-1,11.51-3.3,17.37-4.43,5.12-1,7.52-3.58,7.8-8.68,1-18.1,2-36.2,3-54.3.13-2.38.27-4.75.44-7.72a49.5,49.5,0,0,1,6.48,1.87c8.33,3.78,16.55,7.8,24.89,11.52,4,1.81,5.06,4.6,4.61,8.81a136.68,136.68,0,0,0-.54,15.42c0,3.5,1.34,6.24,5.55,6.12s4.31-3.26,4.48-6.37c.29-5.46-.07-11.1,1.2-16.34,2.32-9.58,2-11.82-6.8-16.35-10.16-5.24-20.38-10.42-30.83-15-4.91-2.17-7-5.22-6.65-10.33.55-8.31,1.43-16.61,1.54-24.92.33-24.12.87-48.26.3-72.36A161.53,161.53,0,0,0,343,173.62a33.47,33.47,0,0,1-1-4.38c-.82-4,.32-6.5,4.8-6.84,7.47-.56,14.93-1.59,22.4-1.77,5.65-.13,11.32.77,17.84,1.28-1.47,2.58-2.28,4.59-3.59,6.17C379.63,172.7,375.52,177.07,371.69,181.67ZM239.44,93.72c-8.64-18.32-4.26-50,21.69-66.59,23.63-15.07,56.11-10,72.52,11.92Zm79.14,29c-24.64,14.29-58.74,6.78-72.73-16.58L340.93,51C352.9,73.38,345.52,107.13,318.58,122.74Zm19.63,200.34c-5.6-2.92-9.88-5.26-14.27-7.39-3.86-1.87-7.79-3.65-11.8-5.19-2.83-1.08-3.22-2.72-1.61-4.92a81,81,0,0,1,6-7.31c7.15-7.66,14.38-15.23,21.6-22.82.65-.68,1.5-1.18,3.78-1.46C340.71,290,339.51,306,338.21,323.08Z" transform="translate(-5.58 -8.25)"/><path d="M505.57,173.87a9.36,9.36,0,0,1-9.08,9.78c-5.15.06-8.86-3.76-8.89-9.18s3.87-9.82,8.95-9.87A9.16,9.16,0,0,1,505.57,173.87Z" transform="translate(-5.58 -8.25)"/><path d="M102.11,174.06c0,5.41-3.61,9.4-8.72,9.58s-9-3.56-9-9.07,3.84-10,8.92-10S102.08,168.65,102.11,174.06Z" transform="translate(-5.58 -8.25)"/><path d="M275.41,105.23c-4.38,5.77-11,7-16.19,10.33C262.22,106.07,265.56,104,275.41,105.23Z" transform="translate(-5.58 -8.25)"/><path d="M303.21,89.77,285.5,99.89C288,90.59,295.41,86.23,303.21,89.77Z" transform="translate(-5.58 -8.25)"/><path d="M273.38,66.08a154.31,154.31,0,0,1-17.1,10c-1.91,1-4.61.34-6.95.45.1-2.33-.56-5.07.43-6.92,4.33-8,11.57-11.94,21.76-13.39,1.11,1,3.64,2.32,4.14,4.17C276.1,62,274.85,65.08,273.38,66.08Z" transform="translate(-5.58 -8.25)"/></svg>